<svg width="97" height="97" viewBox="0 0 97 97" fill="none" xmlns="http://www.w3.org/2000/svg">
<path id="Vector" d="M64.4335 0.535767C56.1858 0.535767 47.9339 3.67473 41.6516 9.95679C29.5458 22.0626 29.1065 41.4703 40.3298 54.1091L37.0732 57.3587L39.8073 60.0928L43.0573 56.8366C55.6957 68.0599 75.1031 67.6203 87.2092 55.5145C99.7731 42.9508 99.7733 22.5207 87.2092 9.957C80.9275 3.67473 72.6818 0.535767 64.4335 0.535767ZM64.4335 4.366C71.6866 4.366 78.9367 7.13932 84.4819 12.6845C95.572 23.7747 95.5718 41.6971 84.4819 52.7868C73.8496 63.4191 56.9426 63.8559 45.7916 54.1023L45.8366 54.0575C45.3517 53.6345 44.8733 53.197 44.4115 52.7354C43.9561 52.2802 43.5267 51.8077 43.1089 51.3298L43.0639 51.3752C33.3098 40.2241 33.7469 23.3168 44.3791 12.6845C49.9245 7.13932 57.1804 4.366 64.4335 4.366ZM64.4335 8.24803C58.1791 8.24803 51.9226 10.6417 47.1395 15.4248C37.5728 24.9915 37.5728 40.4412 47.1395 50.0075C49.2318 52.1003 51.6032 53.7377 54.1357 54.9149C48.9956 50.9763 45.6816 44.7764 45.6816 37.8004C45.6816 34.6385 46.3609 31.633 47.5841 28.9274C46.7247 33.1544 47.6749 37.3629 50.57 40.2574C55.6427 45.3304 64.7552 44.4499 70.9209 38.2843C77.0865 32.1186 77.9668 23.0062 72.8936 17.9332C72.4094 17.4499 71.8805 17.0138 71.314 16.6305C80.6264 18.415 87.8123 26.1937 88.6988 35.7953C89.615 28.5587 87.2915 20.9948 81.7215 15.4246C76.9384 10.6415 70.6881 8.24782 64.4337 8.24782L64.4335 8.24803ZM32.0631 57.7974L4.24465 85.6155L11.3765 92.7476L39.1951 64.9292L32.0628 57.7971L32.0631 57.7974ZM3.81256 90.6325L0.510986 93.9273L3.23891 96.6552L6.53387 93.3536L3.81256 90.6325Z" fill="#ED4F09"/>
</svg>
