<svg width="85" height="97" viewBox="0 0 85 97" fill="none" xmlns="http://www.w3.org/2000/svg">
<path id="Vector" d="M81.7979 22.1664L45.7409 0.75972L45.6889 0.731685L46.0013 0.55146H45.3364C44.5842 0.188397 43.7548 0.0143212 42.9201 0.0443313C42.0854 0.0743414 41.2706 0.307531 40.5465 0.723675L37.747 2.33769L3.28796 22.1785C2.50439 22.6294 1.85346 23.2789 1.40067 24.0614C0.94789 24.8439 0.709238 25.7319 0.70874 26.636V69.5616C0.70874 71.4039 1.68997 73.102 3.28796 74.0192L40.5505 95.4739C42.1605 96.4031 44.1469 96.3871 45.7449 95.4379L81.7979 74.0312C83.3599 73.106 84.3171 71.4239 84.3171 69.6056V26.588C84.3171 24.7737 83.3599 23.0916 81.7979 22.1664ZM4.57356 24.4052L41.8841 2.92242C42.2763 2.70846 42.7174 2.60037 43.1641 2.6088C43.6107 2.61722 44.0475 2.74188 44.4313 2.97048L80.4843 24.3772C80.8194 24.581 81.103 24.8592 81.3133 25.1902L63.1186 35.423L45.1041 24.6095C44.5204 24.2587 43.8542 24.0687 43.1733 24.0589C42.4923 24.049 41.8209 24.2197 41.2273 24.5534L21.8071 35.4791L3.61236 25.3905C3.8376 24.981 4.16983 24.6405 4.57356 24.4052ZM61.1642 57.6187L43.1577 47.6382V26.64C43.3766 26.6461 43.5904 26.7081 43.7785 26.8202L61.1642 37.2533V57.6187ZM42.0884 49.9852L60.8798 60.4022L43.1337 71.0515L24.5185 60.5784C24.329 60.4709 24.1704 60.3164 24.0579 60.1298L42.0884 49.9852ZM41.8321 93.2472L4.56956 71.7924C4.17762 71.5666 3.85207 71.2415 3.62568 70.8499C3.39929 70.4583 3.28005 70.0139 3.27995 69.5616V28.1499L21.2864 38.1304V59.453C21.2864 60.8467 22.0394 62.1323 23.2529 62.8172L42.5209 73.6547L43.1497 74.0071V93.5796C42.6885 93.5899 42.2331 93.4751 41.8321 93.2472Z" fill="#CA0D38"/>
</svg>
