<svg width="59" height="97" viewBox="0 0 59 97" fill="none" xmlns="http://www.w3.org/2000/svg">
<g id="Group">
<path id="Vector" d="M33.9852 19.915H24.3733V24.721C24.3733 25.9956 24.8796 27.218 25.7809 28.1193C26.6822 29.0206 27.9046 29.527 29.1793 29.527C30.4539 29.527 31.6763 29.0206 32.5776 28.1193C33.4789 27.218 33.9852 25.9956 33.9852 24.721V19.915Z" fill="#3E67E3"/>
<path id="Vector_2" fill-rule="evenodd" clip-rule="evenodd" d="M0.343262 0.691162V10.3031H5.14923V24.721C5.14923 31.0941 7.68094 37.2062 12.1874 41.7127C16.6939 46.2192 22.806 48.7509 29.1791 48.7509C22.806 48.7509 16.6939 51.2826 12.1874 55.789C7.68094 60.2955 5.14923 66.4076 5.14923 72.7807V87.1986H0.343262V96.8106H58.0149V87.1986H53.2089V72.7807C53.2089 66.4076 50.6772 60.2955 46.1708 55.789C41.6643 51.2826 35.5522 48.7509 29.1791 48.7509C32.3347 48.7509 35.4595 48.1293 38.3749 46.9217C41.2903 45.7141 43.9394 43.9441 46.1708 41.7127C48.4021 39.4813 50.1722 36.8323 51.3798 33.9168C52.5874 31.0014 53.2089 27.8767 53.2089 24.721V10.3031H58.0149V0.691162H0.343262ZM14.7612 10.3031H43.597V24.721C43.597 28.5449 42.078 32.2121 39.3741 34.916C36.6702 37.6199 33.003 39.1389 29.1791 39.1389C25.3552 39.1389 21.688 37.6199 18.9841 34.916C16.2802 32.2121 14.7612 28.5449 14.7612 24.721V10.3031ZM14.7612 72.7807V87.1986H43.597V72.7807C43.597 68.9568 42.078 65.2896 39.3741 62.5857C36.6702 59.8818 33.003 58.3628 29.1791 58.3628C25.3552 58.3628 21.688 59.8818 18.9841 62.5857C16.2802 65.2896 14.7612 68.9568 14.7612 72.7807Z" fill="#3E67E3"/>
</g>
</svg>
